<?xml version="1.0" standalone="no"?>
<!DOCTYPE svg PUBLIC "-//W3C//DTD SVG 20010904//EN"
 "http://www.w3.org/TR/2001/REC-SVG-20010904/DTD/svg10.dtd">
<svg version="1.0" xmlns="http://www.w3.org/2000/svg"
 width="1000.000000pt" height="1000.000000pt" viewBox="0 0 1000.000000 1000.000000"
 preserveAspectRatio="xMidYMid meet">
<metadata>
Created by potrace 1.14, written by Peter Selinger 2001-2017
</metadata>
<g transform="translate(0.000000,1000.000000) scale(0.100000,-0.100000)"
fill="#000000" stroke="none">
<path d="M0 7825 l0 -2175 760 0 760 1 1 27 c0 15 1 992 1 2172 l1 2145 -762
3 -761 2 0 -2175z"/>
<path d="M2828 9988 c-3 -11 -2 -4308 1 -4330 1 -4 342 -6 759 -5 l757 2 2
2173 3 2172 -759 0 c-598 0 -760 -3 -763 -12z"/>
<path d="M5651 7825 l0 -2174 2175 0 2174 -1 0 2175 0 2175 -2174 0 -2175 0 0
-2175z"/>
<path d="M2020 4343 c-313 -26 -611 -112 -855 -246 -38 -21 -82 -43 -97 -50
-16 -6 -28 -15 -28 -19 0 -4 -6 -8 -14 -8 -8 0 -16 -3 -18 -7 -2 -5 -30 -26
-63 -48 -103 -68 -206 -155 -320 -270 -235 -237 -404 -512 -510 -831 -84 -250
-110 -414 -110 -689 0 -200 15 -353 47 -470 5 -22 11 -47 13 -55 23 -121 101
-327 182 -480 267 -509 724 -893 1273 -1070 92 -29 262 -68 335 -76 27 -3 54
-8 58 -11 15 -9 399 -11 475 -2 134 15 195 26 312 55 241 60 454 153 665 291
91 60 130 89 220 163 68 56 234 230 297 311 158 203 273 418 357 668 23 68 44
137 47 154 2 17 7 33 9 37 2 3 7 29 10 56 4 27 8 56 10 64 5 17 10 51 20 125
4 28 8 115 9 195 4 195 -10 347 -45 500 -6 25 -12 52 -14 60 -27 129 -98 320
-182 482 -250 490 -699 879 -1218 1056 -98 34 -265 77 -330 87 -23 3 -50 7
-62 9 -77 15 -376 27 -473 19z"/>
<path d="M7047 4342 c-2 -4 -4 -316 -3 -695 1 -451 -2 -687 -9 -688 -5 -1
-318 -2 -695 -3 l-685 -1 0 -760 0 -760 690 0 c380 0 692 -3 695 -6 3 -4 5
-327 4 -718 l0 -711 760 2 761 3 0 710 c0 391 3 712 6 715 4 3 327 5 718 5
l711 0 0 760 0 761 -702 -1 c-387 0 -710 1 -718 3 -13 3 -15 88 -15 697 l0
695 -757 -1 c-417 0 -759 -3 -761 -7z"/>
</g>
</svg>
