<svg width="73" height="20" viewBox="0 0 73 20" fill="none" xmlns="http://www.w3.org/2000/svg">
<g clip-path="url(#clip0_3915_100389)">
<path fill-rule="evenodd" clip-rule="evenodd" d="M14.0868 19.4999C14.0868 19.776 14.3107 19.9999 14.5868 19.9999H16.6303C16.9065 19.9999 17.1303 19.776 17.1303 19.4999V17.1298H19.5001C19.7762 17.1298 20.0001 16.906 20.0001 16.6298V14.5864C20.0001 14.3102 19.7762 14.0864 19.5001 14.0864H17.1303V11.8042C17.1303 11.5281 16.9065 11.3042 16.6303 11.3042L14.5868 11.3042C14.3107 11.3042 14.0868 11.5281 14.0868 11.8042L14.0868 14.0864H11.8044C11.5283 14.0864 11.3044 14.3102 11.3044 14.5864V16.6298C11.3044 16.906 11.5283 17.1298 11.8044 17.1298H14.0868L14.0868 19.4999Z" fill="#354E66"/>
<rect x="8.69556" width="8.69565" height="3.04348" rx="0.5" transform="rotate(90 8.69556 0)" fill="#354E66"/>
<rect x="3.0437" width="8.69565" height="3.04348" rx="0.5" transform="rotate(90 3.0437 0)" fill="#354E66"/>
<ellipse cx="4.34783" cy="15.6522" rx="4.34783" ry="4.34783" transform="rotate(-90 4.34783 15.6522)" fill="#354E66"/>
<rect x="11.3044" y="8.6958" width="8.69565" height="8.69566" rx="0.5" transform="rotate(-90 11.3044 8.6958)" fill="#354E66"/>
<path d="M28.7955 4.16335V1.95455H40.4006V4.16335H35.9048V16.5H33.2912V4.16335H28.7955ZM45.7006 16.7131C44.6353 16.7131 43.712 16.4787 42.9308 16.0099C42.1495 15.5412 41.5434 14.8854 41.1126 14.0426C40.6864 13.1998 40.4734 12.215 40.4734 11.0881C40.4734 9.96117 40.6864 8.97396 41.1126 8.12642C41.5434 7.27888 42.1495 6.62074 42.9308 6.15199C43.712 5.68324 44.6353 5.44886 45.7006 5.44886C46.766 5.44886 47.6893 5.68324 48.4705 6.15199C49.2518 6.62074 49.8555 7.27888 50.2816 8.12642C50.7125 8.97396 50.9279 9.96117 50.9279 11.0881C50.9279 12.215 50.7125 13.1998 50.2816 14.0426C49.8555 14.8854 49.2518 15.5412 48.4705 16.0099C47.6893 16.4787 46.766 16.7131 45.7006 16.7131ZM45.7148 14.6534C46.2925 14.6534 46.7754 14.4948 47.1637 14.1776C47.552 13.8556 47.8408 13.4247 48.0302 12.8849C48.2243 12.3452 48.3214 11.7438 48.3214 11.081C48.3214 10.4134 48.2243 9.80966 48.0302 9.26989C47.8408 8.72538 47.552 8.29214 47.1637 7.97017C46.7754 7.6482 46.2925 7.48722 45.7148 7.48722C45.123 7.48722 44.6306 7.6482 44.2376 7.97017C43.8493 8.29214 43.5581 8.72538 43.364 9.26989C43.1746 9.80966 43.0799 10.4134 43.0799 11.081C43.0799 11.7438 43.1746 12.3452 43.364 12.8849C43.5581 13.4247 43.8493 13.8556 44.2376 14.1776C44.6306 14.4948 45.123 14.6534 45.7148 14.6534ZM53.1101 16.5V5.59091H55.603V7.40909H55.7166C55.9155 6.77936 56.2564 6.29403 56.7393 5.95312C57.227 5.60748 57.7834 5.43466 58.4084 5.43466C58.5504 5.43466 58.709 5.44176 58.8842 5.45597C59.0642 5.46544 59.2133 5.48201 59.3317 5.50568V7.87074C59.2228 7.83286 59.05 7.79972 58.8132 7.77131C58.5812 7.73816 58.3563 7.72159 58.1385 7.72159C57.6697 7.72159 57.2483 7.82339 56.8743 8.02699C56.505 8.22585 56.2138 8.50284 56.0007 8.85795C55.7876 9.21307 55.6811 9.62263 55.6811 10.0866V16.5H53.1101ZM67.8704 20.5909V14.7812H67.7638C67.6313 15.0464 67.4395 15.3281 67.1886 15.6264C66.9376 15.92 66.6062 16.1709 66.1942 16.3793C65.7823 16.5876 65.2638 16.6918 64.6388 16.6918C63.7818 16.6918 63.0148 16.4716 62.3377 16.0312C61.6606 15.5909 61.1256 14.9517 60.7326 14.1136C60.3396 13.2756 60.1431 12.2576 60.1431 11.0597C60.1431 9.84754 60.342 8.82481 60.7397 7.99148C61.1422 7.15341 61.6843 6.52131 62.3661 6.09517C63.0479 5.6643 63.8079 5.44886 64.646 5.44886C65.2852 5.44886 65.8107 5.55777 66.2227 5.77557C66.6346 5.98864 66.9613 6.24669 67.2028 6.54972C67.4442 6.84801 67.6313 7.12973 67.7638 7.39489H67.9201V5.59091H70.4485V20.5909H67.8704ZM65.3562 14.5824C65.9007 14.5824 66.3647 14.4356 66.7482 14.142C67.1317 13.8437 67.4229 13.4295 67.6218 12.8991C67.8207 12.3688 67.9201 11.7509 67.9201 11.0455C67.9201 10.34 67.8207 9.7268 67.6218 9.20597C67.4277 8.68513 67.1388 8.2803 66.7553 7.99148C66.3765 7.70265 65.9102 7.55824 65.3562 7.55824C64.7833 7.55824 64.305 7.70739 63.9215 8.00568C63.538 8.30398 63.2492 8.71591 63.055 9.24148C62.8609 9.76705 62.7638 10.3684 62.7638 11.0455C62.7638 11.7273 62.8609 12.3357 63.055 12.8707C63.2539 13.401 63.5451 13.8201 63.9286 14.1278C64.3169 14.4309 64.7927 14.5824 65.3562 14.5824Z" fill="#354E66"/>
</g>
<defs>
<clipPath id="clip0_3915_100389">
<rect width="73" height="20" fill="white"/>
</clipPath>
</defs>
</svg>
